<mxfile modified="2022-05-02T22:21:06.135Z" host="app.diagrams.net" agent="5.0 (Windows NT 10.0; Win64; x64) AppleWebKit/537.36 (KHTML, like Gecko) Chrome/100.0.4896.127 Safari/537.36 Edg/100.0.1185.50" etag="vZOMtc46thjxfO1QRhbj" compressed="false" version="17.5.0" type="google">
  <diagram name="Security/Confidentiality/At Rest/Encrypted Harddrive" id="PwEI8Txmv2YEjIgaxzDd">
    <mxGraphModel grid="1" page="1" gridSize="10" guides="1" tooltips="1" connect="1" arrows="1" fold="1" pageScale="1" pageWidth="827" pageHeight="1169" math="0" shadow="0">
      <root>
        <mxCell id="jAgQEEqsFtPPCBIFbK7k-0" />
        <mxCell id="jAgQEEqsFtPPCBIFbK7k-1" value="Diagram" parent="jAgQEEqsFtPPCBIFbK7k-0" />
        <mxCell id="jAgQEEqsFtPPCBIFbK7k-2" value="extracted" style="rounded=0;jumpStyle=arc;orthogonalLoop=1;jettySize=auto;html=1;dashed=1;fillColor=#f5f5f5;strokeColor=#666666;" parent="jAgQEEqsFtPPCBIFbK7k-1" source="jAgQEEqsFtPPCBIFbK7k-3" edge="1">
          <mxGeometry relative="1" as="geometry">
            <mxPoint x="450" y="447.07843137254895" as="targetPoint" />
          </mxGeometry>
        </mxCell>
        <mxCell id="jAgQEEqsFtPPCBIFbK7k-3" value="Database&lt;br&gt;Server&lt;br&gt;" style="verticalLabelPosition=bottom;aspect=fixed;html=1;verticalAlign=top;strokeColor=none;align=center;outlineConnect=0;shape=mxgraph.citrix.database_server;fillColor=none;" parent="jAgQEEqsFtPPCBIFbK7k-1" vertex="1">
          <mxGeometry x="322.5" y="425" width="40" height="45" as="geometry" />
        </mxCell>
        <mxCell id="jAgQEEqsFtPPCBIFbK7k-4" style="edgeStyle=none;rounded=0;jumpStyle=arc;orthogonalLoop=1;jettySize=auto;html=1;dashed=1;strokeWidth=2;strokeColor=#009900;" parent="jAgQEEqsFtPPCBIFbK7k-1" source="jAgQEEqsFtPPCBIFbK7k-6" target="jAgQEEqsFtPPCBIFbK7k-3" edge="1">
          <mxGeometry relative="1" as="geometry" />
        </mxCell>
        <mxCell id="jAgQEEqsFtPPCBIFbK7k-6" value="Web&lt;br&gt;Server" style="verticalLabelPosition=bottom;aspect=fixed;html=1;verticalAlign=top;strokeColor=none;align=center;outlineConnect=0;shape=mxgraph.citrix.web_server;fillColor=none;" parent="jAgQEEqsFtPPCBIFbK7k-1" vertex="1">
          <mxGeometry x="320" y="320" width="42.5" height="50" as="geometry" />
        </mxCell>
        <mxCell id="jAgQEEqsFtPPCBIFbK7k-9" value="uses" style="edgeStyle=none;rounded=0;jumpStyle=arc;orthogonalLoop=1;jettySize=auto;html=1;dashed=1;strokeColor=#009900;strokeWidth=2;" parent="jAgQEEqsFtPPCBIFbK7k-1" source="jAgQEEqsFtPPCBIFbK7k-10" target="jAgQEEqsFtPPCBIFbK7k-6" edge="1">
          <mxGeometry relative="1" as="geometry" />
        </mxCell>
        <mxCell id="jAgQEEqsFtPPCBIFbK7k-10" value="User" style="shape=image;html=1;verticalAlign=top;verticalLabelPosition=bottom;labelBackgroundColor=#ffffff;imageAspect=0;aspect=fixed;image=https://cdn0.iconfinder.com/data/icons/elasto-online-store/26/00-ELASTOFONT-STORE-READY_user-128.png;fillColor=none;" parent="jAgQEEqsFtPPCBIFbK7k-1" vertex="1">
          <mxGeometry x="322.5" y="200" width="40" height="40" as="geometry" />
        </mxCell>
        <mxCell id="jAgQEEqsFtPPCBIFbK7k-11" value="no use without&lt;br&gt;access key" style="edgeStyle=none;rounded=0;jumpStyle=arc;orthogonalLoop=1;jettySize=auto;html=1;dashed=1;strokeColor=#FF0000;entryX=1;entryY=0.5;entryDx=0;entryDy=0;" parent="jAgQEEqsFtPPCBIFbK7k-1" source="jAgQEEqsFtPPCBIFbK7k-13" target="jAgQEEqsFtPPCBIFbK7k-15" edge="1">
          <mxGeometry relative="1" as="geometry">
            <mxPoint x="470" y="427" as="targetPoint" />
          </mxGeometry>
        </mxCell>
        <mxCell id="jAgQEEqsFtPPCBIFbK7k-13" value="" style="shape=image;html=1;verticalAlign=top;verticalLabelPosition=bottom;labelBackgroundColor=#ffffff;imageAspect=0;aspect=fixed;image=https://cdn0.iconfinder.com/data/icons/popo_emotions_the_blacy_png/128/bad_egg.png;fillColor=none;" parent="jAgQEEqsFtPPCBIFbK7k-1" vertex="1">
          <mxGeometry x="590" y="430" width="40" height="40" as="geometry" />
        </mxCell>
        <mxCell id="jAgQEEqsFtPPCBIFbK7k-15" value="" style="shape=image;html=1;verticalAlign=top;verticalLabelPosition=bottom;labelBackgroundColor=#ffffff;imageAspect=0;aspect=fixed;image=https://cdn3.iconfinder.com/data/icons/simple2/Hard-Drive.png;fillColor=none;fontSize=10;" parent="jAgQEEqsFtPPCBIFbK7k-1" vertex="1">
          <mxGeometry x="450" y="430" width="40" height="40" as="geometry" />
        </mxCell>
        <mxCell id="jh7XCHYx_IfWxnhsMTFE-2" value="" style="shape=image;html=1;verticalAlign=top;verticalLabelPosition=bottom;labelBackgroundColor=#ffffff;imageAspect=0;aspect=fixed;image=https://cdn4.iconfinder.com/data/icons/top-search-7/128/_android_logo_robot_interface_media_social_-128.png" parent="jAgQEEqsFtPPCBIFbK7k-1" vertex="1">
          <mxGeometry x="160" y="425" width="45" height="45" as="geometry" />
        </mxCell>
        <mxCell id="jh7XCHYx_IfWxnhsMTFE-3" style="edgeStyle=none;rounded=0;jumpStyle=arc;orthogonalLoop=1;jettySize=auto;html=1;dashed=1;strokeWidth=2;strokeColor=#009900;exitX=1;exitY=0.5;exitDx=0;exitDy=0;" parent="jAgQEEqsFtPPCBIFbK7k-1" source="jh7XCHYx_IfWxnhsMTFE-2" target="jAgQEEqsFtPPCBIFbK7k-3" edge="1">
          <mxGeometry relative="1" as="geometry">
            <mxPoint x="351.55487804878044" y="380" as="sourcePoint" />
            <mxPoint x="352.2256097560976" y="435" as="targetPoint" />
          </mxGeometry>
        </mxCell>
        <mxCell id="jh7XCHYx_IfWxnhsMTFE-4" value="Access restricted&amp;nbsp;&lt;br&gt;to Deployment Pipeline Service Account" style="text;html=1;strokeColor=none;fillColor=none;align=center;verticalAlign=middle;whiteSpace=wrap;rounded=0;" parent="jAgQEEqsFtPPCBIFbK7k-1" vertex="1">
          <mxGeometry x="115" y="390" width="130" height="20" as="geometry" />
        </mxCell>
        <mxCell id="jh7XCHYx_IfWxnhsMTFE-5" value="DBA to&lt;br&gt;Stakeholders" style="shape=image;html=1;verticalAlign=top;verticalLabelPosition=bottom;labelBackgroundColor=#ffffff;imageAspect=0;aspect=fixed;image=https://cdn0.iconfinder.com/data/icons/elasto-online-store/26/00-ELASTOFONT-STORE-READY_user-128.png;fillColor=none;" parent="jAgQEEqsFtPPCBIFbK7k-1" vertex="1">
          <mxGeometry x="160" y="280" width="40" height="40" as="geometry" />
        </mxCell>
        <mxCell id="jh7XCHYx_IfWxnhsMTFE-6" value="X" style="edgeStyle=none;rounded=0;jumpStyle=arc;orthogonalLoop=1;jettySize=auto;html=1;dashed=1;strokeWidth=2;exitX=1;exitY=1;exitDx=0;exitDy=0;strokeColor=#CC0000;fontStyle=1;fontSize=17;fontColor=#CC0000;" parent="jAgQEEqsFtPPCBIFbK7k-1" source="jh7XCHYx_IfWxnhsMTFE-5" target="jAgQEEqsFtPPCBIFbK7k-3" edge="1">
          <mxGeometry relative="1" as="geometry">
            <mxPoint x="352.29999999999995" y="250" as="sourcePoint" />
            <mxPoint x="351.5" y="330" as="targetPoint" />
          </mxGeometry>
        </mxCell>
        <mxCell id="jAgQEEqsFtPPCBIFbK7k-16" value="Title/Diagram" parent="jAgQEEqsFtPPCBIFbK7k-0" />
        <mxCell id="jAgQEEqsFtPPCBIFbK7k-14" value="&lt;font style=&quot;font-size: 12px&quot;&gt;&lt;span style=&quot;font-size: 12px&quot;&gt;Diagram: Base System Logical Module -&amp;nbsp;&lt;/span&gt;Security - At Rest - Encrypted HardDrive requires secured Key.&lt;/font&gt;" style="text;strokeColor=none;fillColor=none;html=1;fontSize=24;fontStyle=2;verticalAlign=middle;align=left;shadow=0;glass=0;comic=0;opacity=30;fontColor=#808080;" parent="jAgQEEqsFtPPCBIFbK7k-16" vertex="1">
          <mxGeometry x="120" y="500" width="520" height="20" as="geometry" />
        </mxCell>
      </root>
    </mxGraphModel>
  </diagram>
</mxfile>
